<svg width="13" height="12" viewBox="0 0 13 12" fill="none" xmlns="http://www.w3.org/2000/svg">
<path d="M2.125 0H10.875C11.0408 2.54059e-09 11.1997 0.0677294 11.3169 0.188289C11.4342 0.308848 11.5 0.472361 11.5 0.642857C11.5 0.813353 11.4342 0.976867 11.3169 1.09743C11.1997 1.21798 11.0408 1.28571 10.875 1.28571H10.25V2.35714C10.25 2.98921 10.1069 3.6126 9.83211 4.17794C9.55729 4.74328 9.15828 5.23504 8.66667 5.61429L8.38917 5.82857C8.36329 5.84853 8.34229 5.87441 8.32783 5.90417C8.31336 5.93392 8.30583 5.96673 8.30583 6C8.30583 6.03327 8.31336 6.06608 8.32783 6.09583C8.34229 6.12559 8.36329 6.15147 8.38917 6.17143L8.66667 6.38571C9.15828 6.76496 9.55729 7.25672 9.83211 7.82206C10.1069 8.3874 10.25 9.01079 10.25 9.64286V10.7143H10.875C11.0408 10.7143 11.1997 10.782 11.3169 10.9026C11.4342 11.0231 11.5 11.1866 11.5 11.3571C11.5 11.5276 11.4342 11.6912 11.3169 11.8117C11.1997 11.9323 11.0408 12 10.875 12H2.125C1.95924 12 1.80027 11.9323 1.68306 11.8117C1.56585 11.6912 1.5 11.5276 1.5 11.3571C1.5 11.1866 1.56585 11.0231 1.68306 10.9026C1.80027 10.782 1.95924 10.7143 2.125 10.7143H2.75V9.64286C2.75 9.01079 2.89307 8.3874 3.16789 7.82206C3.44271 7.25672 3.84172 6.76496 4.33333 6.38571L4.61083 6.17143C4.63671 6.15147 4.65771 6.12559 4.67217 6.09583C4.68664 6.06608 4.69417 6.03327 4.69417 6C4.69417 5.96673 4.68664 5.93392 4.67217 5.90417C4.65771 5.87441 4.63671 5.84853 4.61083 5.82857L4.33333 5.61429C3.84172 5.23504 3.44271 4.74328 3.16789 4.17794C2.89307 3.6126 2.75 2.98921 2.75 2.35714V1.28571H2.125C1.95924 1.28571 1.80027 1.21798 1.68306 1.09743C1.56585 0.976867 1.5 0.813353 1.5 0.642857C1.5 0.472361 1.56585 0.308848 1.68306 0.188289C1.80027 0.0677294 1.95924 2.54059e-09 2.125 0ZM9 1.28571H4V2.35714C4 3.234 4.40167 4.05943 5.08333 4.58571L5.36083 4.8C6.13917 5.4 6.13917 6.6 5.36083 7.2L5.08333 7.41429C4.74697 7.67377 4.47396 8.01024 4.28593 8.39705C4.09789 8.78386 4 9.21039 4 9.64286V10.7143H9V9.64286C9 9.21039 8.90211 8.78386 8.71407 8.39705C8.52604 8.01024 8.25303 7.67377 7.91667 7.41429L7.63917 7.2C7.45775 7.06049 7.31046 6.87939 7.209 6.67108C7.10755 6.46277 7.05472 6.23299 7.05472 6C7.05472 5.76701 7.10755 5.53723 7.209 5.32892C7.31046 5.12061 7.45775 4.93951 7.63917 4.8L7.91667 4.58571C8.25303 4.32623 8.52604 3.98976 8.71407 3.60295C8.90211 3.21614 9 2.78961 9 2.35714V1.28571Z" fill="white"/>
<path d="M8 9.99998C8 9.49995 8 8 6.50002 8C4.90002 8 5.00001 9.33333 5.00001 10H8V9.99998Z" fill="white"/>
</svg>
