<svg width="14" height="15" viewBox="0 0 14 15" fill="none" xmlns="http://www.w3.org/2000/svg">
<path d="M3.28125 2.25H6.34375C6.5178 2.25 6.68472 2.31914 6.80779 2.44221C6.93086 2.56528 7 2.7322 7 2.90625C7 3.0803 6.93086 3.24722 6.80779 3.37029C6.68472 3.49336 6.5178 3.5625 6.34375 3.5625H3.28125C3.22323 3.5625 3.16759 3.58555 3.12657 3.62657C3.08555 3.66759 3.0625 3.72323 3.0625 3.78125V11.2188C3.0625 11.3395 3.1605 11.4375 3.28125 11.4375H10.7188C10.7768 11.4375 10.8324 11.4145 10.8734 11.3734C10.9145 11.3324 10.9375 11.2768 10.9375 11.2188V8.15625C10.9375 7.9822 11.0066 7.81528 11.1297 7.69221C11.2528 7.56914 11.4197 7.5 11.5938 7.5C11.7678 7.5 11.9347 7.56914 12.0578 7.69221C12.1809 7.81528 12.25 7.9822 12.25 8.15625V11.2188C12.25 11.6249 12.0887 12.0143 11.8015 12.3015C11.5143 12.5887 11.1249 12.75 10.7188 12.75H3.28125C2.87514 12.75 2.48566 12.5887 2.19849 12.3015C1.91133 12.0143 1.75 11.6249 1.75 11.2188V3.78125C1.75 2.936 2.436 2.25 3.28125 2.25ZM9.2785 1.375H12.9062C12.9643 1.375 13.0199 1.39805 13.0609 1.43907C13.102 1.48009 13.125 1.53573 13.125 1.59375V5.2215C13.1251 5.26482 13.1123 5.30719 13.0883 5.34324C13.0642 5.37928 13.03 5.40738 12.99 5.42397C12.95 5.44056 12.906 5.44489 12.8635 5.43642C12.821 5.42794 12.782 5.40705 12.7514 5.37638L11.4012 4.02625L8.12 7.3075C7.99562 7.42356 7.83104 7.48679 7.66094 7.48385C7.49085 7.48091 7.32854 7.41204 7.20825 7.29175C7.08796 7.17146 7.01909 7.00915 7.01615 6.83906C7.01321 6.66896 7.07644 6.50438 7.1925 6.38L10.4738 3.09875L9.12362 1.74863C9.09295 1.71803 9.07206 1.67902 9.06358 1.63653C9.05511 1.59405 9.05944 1.55 9.07603 1.50999C9.09262 1.46997 9.12072 1.43577 9.15676 1.41174C9.19281 1.38771 9.23518 1.37492 9.2785 1.375Z" fill="#D3D4FF"/>
</svg>
